Coordinates
version=1
nRows=14
nColumns=36
inDegrees=yes

Units are S.I. units (second, meters, Newtons, ...)
If the header above contains a line with 'inDegrees', this indicates whether rotational values are in degrees (yes) or radians (no).

endheader
time	pelvis_tilt	pelvis_list	pelvis_rotation	pelvis_tx	pelvis_ty	pelvis_tz	hip_flexion_r	hip_adduction_r	hip_rotation_r	knee_angle_r	knee_angle_r_beta	ankle_angle_r	subtalar_angle_r	mtp_angle_r	hip_flexion_l	hip_adduction_l	hip_rotation_l	knee_angle_l	knee_angle_l_beta	ankle_angle_l	subtalar_angle_l	mtp_angle_l	lumbar_extension	lumbar_bending	lumbar_rotation	arm_flex_r	arm_add_r	arm_rot_r	elbow_flex_r	pro_sup_r	arm_flex_l	arm_add_l	arm_rot_l	elbow_flex_l	pro_sup_l
      2.16666670	     -5.06695822	     -0.02484423	      5.01484982	      0.00843836	      1.21363733	      0.15439394	      2.94518037	      2.12635593	     -4.63395778	      4.51772719	      0.07884921	     13.72747582	     -4.28103139	     -7.49999987	      1.02783289	     -3.50409447	     -8.68635445	      1.59974096	      0.02792075	      8.08540120	      1.98858125	     -7.49999987	     -4.46419399	      1.46296048	     -3.18220781	      0.61007386	     -8.04175309	     -6.17366805	     26.61831828	     84.00757450	      1.81355246	     -8.12206549	      1.25122358	     25.96031003	     87.46856174
      2.18333330	     -5.03551484	     -0.04742511	      5.09968343	      0.00861067	      1.21321511	      0.15541436	      3.00435165	      2.24761805	     -4.60518842	      4.53387498	      0.07913105	     13.69266064	     -4.38473003	     -7.49999987	      1.04814878	     -3.62784137	     -8.74609331	      1.65200536	      0.02883293	      8.19804671	      2.04483614	     -7.49999987	     -4.36193307	      1.52948070	     -3.20994371	      0.75841356	     -8.36083095	     -4.29167997	     26.91273693	     79.24706444	      2.35772103	     -8.36362601	      3.83689072	     26.31184807	     82.56784772
      2.20000000	     -5.01592544	     -0.03574009	      5.16826838	      0.00804845	      1.21379413	      0.15585344	      3.03350287	      2.30845138	     -4.55121203	      4.58350014	      0.07999717	     13.70793609	     -4.49443134	     -7.49999987	      1.08939670	     -3.69468614	     -8.68640525	      1.71020973	      0.02984879	      8.17702193	      1.96966455	     -7.49999987	     -4.30689622	      1.58055070	     -3.22014262	      0.77648590	     -8.19860123	     -6.37421434	     27.58660231	     83.08769643	      2.75412780	     -8.08828481	      2.32579550	     27.06616402	     86.85146633
      2.21666670	     -5.01392466	      0.00738283	      5.25507569	      0.00894068	      1.21357781	      0.15710209	      3.17613000	      2.32804561	     -4.53406021	      4.69308333	      0.08190976	     13.89965450	     -4.39103374	     -7.49999987	      1.11755146	     -3.71987609	     -8.53818677	      1.77768037	      0.03102638	      8.22225166	      1.82312368	     -7.49999987	     -4.14868478	      1.58302653	     -3.29029792	      0.92517906	     -8.39033462	     -5.45634759	     27.89976277	     80.64158471	      3.22120856	     -8.18807056	      3.75583038	     27.59841640	     84.50448748
      2.23333330	     -4.97432035	      0.05952139	      5.36222674	      0.00689012	      1.21478547	      0.15849598	      3.16846640	      2.36963421	     -4.37091024	      4.69851054	      0.08200448	     13.99493800	     -4.30615035	     -7.49999987	      1.15733543	     -3.75386411	     -8.52209441	      1.84407002	      0.03218509	      8.26293851	      1.89100150	     -7.49999987	     -4.09477520	      1.55978067	     -3.35252561	      0.99523622	     -8.25432090	     -6.84174585	     28.52379798	     82.53826880	      3.77671756	     -8.06374082	      3.33594532	     28.20764568	     86.61489559
      2.25000000	     -4.90992635	      0.10870712	      5.49514144	      0.00614809	      1.21444845	      0.16066136	      3.11864544	      2.43531398	     -4.26099605	      4.72854317	      0.08252865	     14.10439964	     -4.26537561	     -7.49999987	      1.20453285	     -3.80683107	     -8.34757273	      1.93998522	      0.03385913	      8.18119023	      1.59218350	     -7.49999987	     -4.06607139	      1.51774021	     -3.40805747	      1.14665912	     -8.27000897	     -6.95641005	     28.91935308	     82.20202665	      4.38711673	     -8.09950207	      4.09010000	     28.67984094	     86.37206679
      2.26666670	     -4.96461861	      0.14481078	      5.60840880	      0.00542400	      1.21434344	      0.16232122	      3.26008906	      2.51886212	     -4.12042077	      4.76895410	      0.08323395	     14.25953963	     -4.08952638	     -7.49999987	      1.39669389	     -3.88208103	     -8.42231278	      2.06508933	      0.03604261	      8.08687989	      1.46769595	     -7.49999987	     -3.88176884	      1.47522247	     -3.55257560	      1.50236608	     -8.29743924	     -6.21981749	     28.99666602	     76.79629433	      5.02761940	     -8.10960017	      5.22146596	     28.99199991	     80.83731392
      2.28333330	     -4.94951292	      0.22333553	      5.73102779	      0.00491579	      1.21546646	      0.16306864	      3.28397443	      2.54854483	     -3.92911385	      4.71191691	      0.08223846	     14.37185487	     -3.91909759	     -7.49999987	      1.50547235	     -3.91704422	     -8.29233338	      2.19633752	      0.03833332	      7.90720554	      1.36518647	     -7.49999987	     -3.89555687	      1.41375657	     -3.55413061	      1.53682021	     -8.30968403	     -7.18311606	     29.73159881	     81.99542671	      5.59109642	     -8.09423836	      5.23107026	     29.57378093	     86.01702132
      2.30000000	     -4.91775244	      0.28054501	      6.00723109	      0.00460937	      1.21650132	      0.16483062	      3.29591819	      2.60280093	     -3.90561772	      4.65715331	      0.08128266	     14.28774693	     -3.86223555	     -7.49999987	      1.59020596	     -3.99646870	     -8.35351194	      2.35218314	      0.04105334	      7.56851822	      1.07562520	     -7.49999987	     -3.83965768	      1.36605733	     -3.72304139	      1.80867729	     -8.30269589	     -6.64401964	     29.82010821	     76.77248324	      6.10890319	     -8.05908874	      6.16938094	     29.87334558	     80.59267126
      2.31666670	     -4.97487204	      0.38357399	      6.14087830	      0.00418651	      1.21496140	      0.16657261	      3.39886910	      2.59110049	     -3.74704593	      4.61521415	      0.08055068	     14.44461649	     -3.51954372	     -7.49999987	      1.74322374	     -4.02631013	     -8.41448379	      2.53519195	      0.04424745	      7.32011372	      0.77840650	     -7.49999987	     -3.77942041	      1.28218254	     -3.48324334	      1.55158971	     -8.22874696	     -8.03080322	     30.77298640	     81.28979004	      6.79062245	     -8.08187088	      7.08782670	     30.11868494	     85.46037991
      2.33333330	     -5.10038036	      0.46312594	      6.16338895	      0.00243173	      1.21732786	      0.16745170	      3.67526730	      2.56688915	     -3.61332911	      4.63277152	      0.08085712	     14.61090887	     -3.26833139	     -7.49999987	      2.02299398	     -4.05168088	     -8.59898868	      2.74386812	      0.04788953	      7.12192298	      0.75660121	     -7.49999987	     -3.58897315	      1.27971946	     -3.63377244	      1.99864293	     -8.40167827	     -7.06577168	     30.63956008	     78.63610308	      7.08534717	     -7.95610243	      7.62713386	     30.30890009	     82.48645819
      2.35000000	     -5.05389908	      0.52851764	      6.32918713	      0.00374841	      1.21718931	      0.16923993	      3.66671851	      2.59882175	     -3.53279447	      4.52521457	      0.07897989	     14.68149839	     -2.96975073	     -7.49999987	      2.09913785	     -4.09291756	     -8.57061392	      2.92592590	      0.05106704	      6.86783438	      0.55608073	     -7.49999987	     -3.56338935	      1.24230906	     -3.69900431	      2.08243010	     -8.42783946	     -6.67920460	     30.81336392	     76.04122361	      7.38099457	     -7.88823002	      8.08017610	     30.75860257	     79.72385764
      2.36666670	     -5.09727267	      0.63430346	      6.37357641	      0.00184272	      1.21561944	      0.17048928	      3.89471896	      2.54396325	     -3.43873973	      4.56576248	      0.07968759	     14.88160303	     -2.77574818	     -7.49999987	      2.33928824	     -4.07777997	     -8.52548791	      3.20631837	      0.05596081	      6.81267720	      0.52875245	     -7.49999987	     -3.63239081	      1.24897007	     -3.47652001	      1.99957144	     -8.44563403	     -8.03122094	     31.56316771	     81.48972246	      7.68271052	     -7.66417405	      7.60279248	     31.14856323	     85.25280020
      2.38333330	     -5.13249295	      0.73790278	      6.48210438	     -0.00019002	      1.21496486	      0.17114044	      4.09361165	      2.47697619	     -3.29652562	      4.59605097	      0.08021622	     15.02917273	     -2.70842194	     -7.49999987	      2.64124627	     -4.06474834	     -8.39376299	      3.62020228	      0.06318445	      6.73662957	      0.41989269	     -7.49999987	     -3.62665463	      1.24195918	     -3.47950895	      2.28019392	     -8.60106577	     -7.53717279	     31.54001241	     79.66039606	      7.89571478	     -7.47648577	      7.75579625	     31.39368242	     83.21616476
